<?xml version="1.0" standalone="no"?>
<!DOCTYPE svg PUBLIC "-//W3C//DTD SVG 20010904//EN"
 "http://www.w3.org/TR/2001/REC-SVG-20010904/DTD/svg10.dtd">
<svg version="1.0" xmlns="http://www.w3.org/2000/svg"
 width="32.000000pt" height="32.000000pt" viewBox="0 0 32.000000 32.000000"
 preserveAspectRatio="xMidYMid meet">

<g transform="translate(0.000000,32.000000) scale(0.100000,-0.100000)"
fill="#000000" stroke="none">
<path d="M79 297 c-106 -71 -106 -203 0 -274 98 -66 241 15 241 137 0 122
-143 203 -241 137z m171 -82 c0 -12 -17 -15 -89 -15 -83 0 -111 7 -94 24 3 3
46 6 95 6 72 0 88 -3 88 -15z m0 -55 c0 -6 -37 -10 -90 -10 -53 0 -90 4 -90
10 0 6 37 10 90 10 53 0 90 -4 90 -10z m3 -55 c-3 -11 -157 -20 -180 -11 -8 3
-11 11 -8 16 9 14 191 9 188 -5z"/>
</g>
</svg>
